<?xml version="1.0" encoding="UTF-8"?>
<svg
  width="32"
  height="32"
  viewBox="0 0 31.555 35"
  xmlns="http://www.w3.org/2000/svg"
>
  <path
    d="M20.7854 15.1022L10.7337 25.1539L4.14417 18.5644C3.69873 18.1189 3.69873 17.4001 4.14417 16.9577L13.391 7.71088L10.7152 5.03515L10.4664 5.28399L10.6784 4.99829L1.44693 14.2297C-0.482309 16.159 -0.482309 19.2894 1.44693 21.2186L10.7337 30.5054L23.4611 17.7779L20.7854 15.1022Z"
    fill="#FF7D45"
  ></path>
  <path
    d="M15.7686 30.1829L13.0929 32.8586L15.7686 35.5343L18.4444 32.8586L15.7686 30.1829Z"
    fill="#FF7D45"
  ></path>
  <path
    d="M15.7503 0L13.0746 2.67575L15.7503 5.35147L18.4261 2.67575L15.7503 0Z"
    fill="#FF7D45"
  ></path>
  <path
    d="M30.0262 14.3003L20.7855 5.03198L8.05811 17.7594L10.7338 20.4352L20.7855 10.3835L27.375 16.973C27.8205 17.4184 27.8205 18.1373 27.375 18.5796L18.1282 27.8265L20.804 30.5022L27.0863 24.2199L30.0231 21.283C31.9524 19.3538 31.9524 16.2295 30.0262 14.2972H30.0231L30.0262 14.3003Z"
    fill="#FF7D45"
  ></path>
</svg>
